<?xml version="1.0" encoding="utf-8"?>
<!-- Generator: Adobe Illustrator 16.0.0, SVG Export Plug-In . SVG Version: 6.00 Build 0)  -->
<!DOCTYPE svg PUBLIC "-//W3C//DTD SVG 1.1//EN" "http://www.w3.org/Graphics/SVG/1.1/DTD/svg11.dtd">
<svg version="1.1"
	 id="svg2" xmlns:dc="http://purl.org/dc/elements/1.1/" xmlns:cc="http://creativecommons.org/ns#" xmlns:rdf="http://www.w3.org/1999/02/22-rdf-syntax-ns#" xmlns:svg="http://www.w3.org/2000/svg" xmlns:sodipodi="http://sodipodi.sourceforge.net/DTD/sodipodi-0.dtd" xmlns:inkscape="http://www.inkscape.org/namespaces/inkscape" sodipodi:docname="factory.svg" inkscape:version="0.48.4 r9939"
	 xmlns="http://www.w3.org/2000/svg" xmlns:xlink="http://www.w3.org/1999/xlink" x="0px" y="0px" width="197.4px" height="139.8px"
	 viewBox="0 0 197.4 139.8" enable-background="new 0 0 197.4 139.8" xml:space="preserve">
<sodipodi:namedview  inkscape:cy="69.900002" inkscape:cx="98.699997" inkscape:zoom="1.6881259" showgrid="false" guidetolerance="10" gridtolerance="10" objecttolerance="10" borderopacity="1" pagecolor="#ffffff" bordercolor="#666666" id="namedview12" inkscape:window-y="-8" inkscape:window-x="-8" inkscape:pageshadow="2" inkscape:window-height="705" inkscape:pageopacity="0" inkscape:window-width="1366" inkscape:current-layer="svg2" inkscape:window-maximized="1">
	</sodipodi:namedview>
<g>
	<g>
		
			<linearGradient id="SVGID_1_" gradientUnits="userSpaceOnUse" x1="34.6853" y1="772.4536" x2="132.365" y2="772.4536" gradientTransform="matrix(1 0 0 1 16.9199 -701.1191)">
			<stop  offset="0" style="stop-color:#4A4D4E"/>
			<stop  offset="1" style="stop-color:#4A4D4E"/>
		</linearGradient>
		<path fill="url(#SVGID_1_)" d="M146.254,22.176c-3.865-5.919-9.263-9.548-16.008-11.331c-1.925-0.508-3.739-1.349-4.26-3.387
			c-0.177-0.694-0.43-1.294-0.724-1.845c-0.46-0.139-0.923-0.273-1.393-0.392c-1.971-0.498-3.054-1.798-3.421-3.295
			c-0.271-0.085-0.542-0.172-0.827-0.244H80.445c-1.431,0.625-2.886,1.248-3.938,2.303c-0.391,0.858-0.84,1.632-1.332,2.344
			c0,0.001-0.001,0.002-0.001,0.003c-0.625,2.463-2.181,3.46-4.363,4.148c-2.088,1.341-4.461,2.281-6.932,3.102
			c-1.409,0.624-2.869,1.17-4.367,1.637c-4.118,2.826-7.059,6.905-7.907,13.127v108.83c0.261,2.63,2.258,3.274,4.354,3.809h91.961
			c1.14-0.88,1.362-2.078,1.361-3.446c0.004-35.504,0.014-71.007-0.027-106.509C149.25,27.774,148.043,24.914,146.254,22.176z"/>
		<path fill="#FEFEFE" d="M136.598,12.084c-1.477-0.858-2.921-1.752-4.304-2.731c-0.774,0.642-1.803,1.047-3.095,1.047
			c-3.241,0-4.852-2.526-4.835-5.04c-0.165-0.044-0.327-0.096-0.494-0.138c-0.142-0.036-0.272-0.08-0.405-0.124
			c0.522,0.715,0.855,1.536,0.824,2.557c-0.114,3.635,2.037,3.978,4.688,4.439c4.106,0.715,8.026,2.715,11.246,5.58
			C138.984,15.831,137.764,13.974,136.598,12.084z"/>
		<path fill="#FEFEFE" d="M147.483,28.954c-0.087-0.154-0.181-0.303-0.27-0.457c0.606,2.037,0.931,4.185,0.897,6.405
			c-0.28,18.865-0.313,37.734-0.286,56.604c0.74-19.361,1.355-38.727,1.375-58.106c0-0.198,0.027-0.379,0.046-0.565
			C148.786,31.521,148.206,30.225,147.483,28.954z"/>
		<path fill="#FEFEFE" d="M147.865,110.125c0.026,10.287,0.055,20.574,0.055,30.86c0.093,0,0.187-0.003,0.28-0.005v-9.58
			c0-0.041,0.005-0.078,0.006-0.119c0.008-6.855,0.032-13.712,0.098-20.566C148.14,110.535,147.997,110.335,147.865,110.125z"/>
		<path fill="#FEFEFE" d="M80.446,1.682c-1.052,0-2.104,0.001-3.156,0.001c-0.051,0.336-0.138,0.684-0.269,1.045
			c-2.34,6.458-7.425,8.943-13.008,10.809c-1.685,0.751-3.451,1.369-5.254,1.899c-1.458,1.792-2.854,3.637-4.242,5.487
			c-0.777,1.036-1.787,1.826-2.906,2.214c-0.001,1.736-0.004,3.472-0.004,5.208c1.201-3.67,3.476-6.724,6.03-9.471
			c4.314-4.64,10.011-6.593,16.16-7.388c0.892-0.115,2.162-0.061,2.105-1.215C75.714,6.447,78.339,4.225,80.446,1.682z"/>
		<path fill="#FEFEFE" d="M51.605,137.175c1.078,1.695,2.768,2.69,4.354,3.809c-0.182,0-0.361,0-0.544,0
			C51.605,140.984,51.605,140.984,51.605,137.175z"/>
		<path fill="#FEFEFE" d="M135.403,80.395c-0.001,15.144,0.006,30.286-0.005,45.429c-0.003,3.614-0.104,3.711-3.617,3.728
			c-4.443,0.02-8.889-0.081-13.328,0.036c-2.313,0.062-3.322-0.705-3.21-3.118c0.14-2.986,0.056-5.984,0.016-8.978
			c-0.061-4.527-2.67-7.35-7.228-7.469c-5.527-0.143-11.064-0.143-16.591,0.001c-4.548,0.117-7.115,2.909-7.174,7.452
			c-0.04,3.083-0.096,6.168,0.004,9.248c0.065,2.136-0.836,2.886-2.91,2.85c-4.804-0.082-9.612-0.089-14.416,0
			c-2.145,0.04-2.858-0.854-2.841-2.919c0.063-7.526,0.018-15.052,0.017-22.577c-0.001-22.851,0.199-45.703-0.111-68.549
			c-0.104-7.651,5.825-12.228,12.141-12.146c15.773,0.204,31.559,0.301,47.329-0.041c6.871-0.149,12.123,6.12,12.015,12.172
			C135.223,50.469,135.404,65.434,135.403,80.395z"/>
		
			<linearGradient id="SVGID_2_" gradientUnits="userSpaceOnUse" x1="88.5559" y1="746.8687" x2="107.7214" y2="746.8687" gradientTransform="matrix(1 0 0 1 16.9199 -701.1191)">
			<stop  offset="0" style="stop-color:#4A4D4E"/>
			<stop  offset="1" style="stop-color:#4A4D4E"/>
		</linearGradient>
		<path fill="url(#SVGID_2_)" d="M114.17,54.989c-2.378-0.111-5.654,0.811-7.646-2.629c-0.561-0.965-1.069-1.823-1.048-2.974
			c0.044-2.448-0.04-4.898,0.027-7.344c0.075-2.65,2.47-5.312,5.083-5.453c2.895-0.157,5.808-0.146,8.701-0.011
			c2.627,0.122,4.686,2.029,5.051,4.829c0.39,2.961,0.433,5.985-0.043,8.945c-0.454,2.838-2.519,4.491-5.438,4.627
			C117.5,55.042,116.137,54.989,114.17,54.989z"/>
		
			<linearGradient id="SVGID_3_" gradientUnits="userSpaceOnUse" x1="88.5535" y1="793.647" x2="107.6511" y2="793.647" gradientTransform="matrix(1 0 0 1 16.9199 -701.1191)">
			<stop  offset="0" style="stop-color:#4A4D4E"/>
			<stop  offset="1" style="stop-color:#4A4D4E"/>
		</linearGradient>
		<path fill="url(#SVGID_3_)" d="M114.799,83.304c9.364-0.637,10.008,2.945,9.723,9.892c-0.062,1.439,0.123,2.884-0.313,4.313
			c-0.827,2.723-2.619,4.188-5.528,4.27c-2.265,0.064-4.528,0.049-6.792,0.016c-4.006-0.057-6.356-2.414-6.403-6.383
			c-0.02-1.541-0.008-3.08-0.005-4.619c0.012-5.524,1.943-7.476,7.419-7.484C113.53,83.304,114.164,83.305,114.799,83.304z"/>
		
			<linearGradient id="SVGID_4_" gradientUnits="userSpaceOnUse" x1="88.5134" y1="770.2671" x2="107.6599" y2="770.2671" gradientTransform="matrix(1 0 0 1 16.9199 -701.1191)">
			<stop  offset="0" style="stop-color:#4A4D4E"/>
			<stop  offset="1" style="stop-color:#4A4D4E"/>
		</linearGradient>
		<path fill="url(#SVGID_4_)" d="M114.408,78.399c-2.093-0.208-4.766,0.677-6.835-1.464c-1.285-1.33-2.273-2.712-2.125-4.745
			c0.151-2.07,0.006-4.159,0.041-6.239c0.06-3.457,2.473-5.93,5.923-6.021c2.353-0.063,4.704-0.056,7.056-0.003
			c3.49,0.078,5.65,1.928,5.949,5.384c0.218,2.514,0.212,5.074,0.015,7.59c-0.283,3.576-2.458,5.409-6.134,5.494
			C117.123,78.421,115.946,78.399,114.408,78.399z"/>
		
			<linearGradient id="SVGID_5_" gradientUnits="userSpaceOnUse" x1="58.072" y1="746.8862" x2="76.6165" y2="746.8862" gradientTransform="matrix(1 0 0 1 16.9199 -701.1191)">
			<stop  offset="0" style="stop-color:#4A4D4E"/>
			<stop  offset="1" style="stop-color:#4A4D4E"/>
		</linearGradient>
		<path fill="url(#SVGID_5_)" d="M84.719,55.006c-8.991,0.002-9.722-0.727-9.716-9.719c0-1.176-0.048-2.358,0.051-3.527
			c0.244-2.939,2.291-5.044,5.241-5.188c2.8-0.137,5.611-0.128,8.41-0.005c2.753,0.122,4.53,1.961,4.714,4.984
			c0.169,2.793,0.139,5.611,0.007,8.408c-0.117,2.529-1.921,5.479-5.453,5.064C86.903,54.897,85.805,55.004,84.719,55.006z"/>
		
			<linearGradient id="SVGID_6_" gradientUnits="userSpaceOnUse" x1="58.0837" y1="770.2788" x2="76.6179" y2="770.2788" gradientTransform="matrix(1 0 0 1 16.9199 -701.1191)">
			<stop  offset="0" style="stop-color:#4A4D4E"/>
			<stop  offset="1" style="stop-color:#4A4D4E"/>
		</linearGradient>
		<path fill="url(#SVGID_6_)" d="M93.505,69.257c0.271,7.538-0.968,9.448-9.098,9.208c-8.589-0.254-9.404-0.873-9.403-9.542
			c0.002-8.044,0.98-8.834,9.063-9.064C92.329,59.621,93.785,61.06,93.505,69.257z"/>
		
			<linearGradient id="SVGID_7_" gradientUnits="userSpaceOnUse" x1="58.0603" y1="793.6558" x2="76.6169" y2="793.6558" gradientTransform="matrix(1 0 0 1 16.9199 -701.1191)">
			<stop  offset="0" style="stop-color:#4A4D4E"/>
			<stop  offset="1" style="stop-color:#4A4D4E"/>
		</linearGradient>
		<path fill="url(#SVGID_7_)" d="M84.489,83.308c8.083-0.528,9.267,1.761,9.019,8.939c-0.059,1.715,0.09,3.455-0.162,5.14
			c-0.421,2.801-2.188,4.3-4.99,4.383c-2.618,0.077-5.244,0.103-7.86-0.013c-3.258-0.145-5.311-2.252-5.451-5.541
			c-0.097-2.254-0.065-4.519-0.021-6.774c0.086-4.187,1.971-6.024,6.214-6.125C82.32,83.291,83.405,83.312,84.489,83.308z"/>
	</g>
</g>
</svg>
