<svg xmlns="http://www.w3.org/2000/svg" viewBox="0 0 113 113" xmlns:xlink="http://www.w3.org/1999/xlink">
<defs>
<pattern width="10" x="0" y="5" overflow="visible" height="5" viewBox="0 -3.4 6.8 3.4" patternUnits="userSpaceOnUse" id="bubbly-dots">
<g>
<path fill="none" d="m0,0 6.8,0 0-3.4-6.8,0z"/>
<path fill="none" d="m6.8,0h-5.3c0-.4-.3-.7-.7-.7-.5,0-.8,.3-.8,.7v-3.4c0,.4 .3,.8 .7,.8 .4,0 .7-.3 .7-.7h5.3v3.3zm-1.9-1.7c0-.4-.3-.7-.7-.7s-.7,.3-.7,.7c0,.4 .3,.7 .7,.7s.7-.3 .7-.7z"/>
<path fill="#d83d96" d="m4.1-2.4c-.4,0-.7,.3-.7,.7 0,.4 .3,.7 .7,.7s.7-.3 .7-.7c0-.4-.3-.7-.7-.7z"/>
<path fill="#d83d96" d="m.7-2.6c.4,0 .7-.3 .7-.7h-1.4c0,.3 .3,.7 .7,.7z"/>
<path fill="#d83d96" d="m.7-.7c-.4,0-.7,.3-.7,.7h1.5c0-.4-.4-.7-.8-.7z"/>
</g>
</pattern>
</defs>
<path fill="url(#bubbly-dots)" fill-rule="evenodd" d="m92.6,18.6c-4.8,0-9.3,1.7-12.8,4.6 .3-1.3 .4-2.6 .4-4 0-10.6-8.3-19.2-18.7-19.2-10.3,0-18.7,8.6-18.7,19.3 0,.6 0,1.2 .1,1.8-1.6-.7-3.3-1.1-5.1-1.1-5.2,0-9.7,3.2-11.8,7.7-1.8-.5-3.7-.8-5.6-.8-11.3,0-20.4,9.4-20.4,21 0,11.6 9.1,21 20.4,21 4.9,0 9.5-1.8 13-4.8 2.3,12.9 11.2,22.2 24.8,22.7 6.2,.2 13.9,9.2 10,26.2 15.7-9.8 13.2-29.1 11.4-32.8 5.7-4.8 9.6-11.8 10.5-19.8 .8,.1 1.7,.2 2.5,.2 11.3,0 20.4-9.4 20.4-21 0-11.6-9.1-21-20.4-21z"/>
</svg>
